<svg xmlns="http://www.w3.org/2000/svg" width="200" height="138" fill="none"><g filter="url(#a)"><path fill="#fff" d="M56.2 129.8c-8.64 0-16.14-1.2-22.5-3.6-6.36-2.52-11.64-5.94-15.84-10.26a44.54 44.54 0 0 1-9.36-15.12 62.13 62.13 0 0 1-3.78-18.54c-.12-3.24-.24-6.9-.36-10.98V58.7c.12-4.32.24-8.16.36-11.52A60.2 60.2 0 0 1 8.5 28.82a43.5 43.5 0 0 1 9.72-14.94A44.8 44.8 0 0 1 34.06 3.8C40.42 1.4 47.8.2 56.2.2c8.52 0 15.9 1.2 22.14 3.6A43 43 0 0 1 94 13.88a42.27 42.27 0 0 1 9.9 14.94 53.83 53.83 0 0 1 3.78 18.36c.24 3.36.36 7.2.36 11.52.12 4.2.12 8.4 0 12.6 0 4.08-.12 7.74-.36 10.98a55.47 55.47 0 0 1-3.78 18.54 43.2 43.2 0 0 1-9.54 15.12c-4.08 4.32-9.3 7.74-15.66 10.26-6.24 2.4-13.74 3.6-22.5 3.6Zm0-26.1c6.24 0 10.74-1.98 13.5-5.94 2.88-4.08 4.38-9.54 4.5-16.38.24-3.48.36-7.14.36-10.98.12-3.84.12-7.68 0-11.52 0-3.84-.12-7.38-.36-10.62-.12-6.6-1.62-11.94-4.5-16.02-2.76-4.08-7.26-6.18-13.5-6.3-6.24.12-10.74 2.22-13.5 6.3s-4.26 9.42-4.5 16.02c-.12 3.24-.24 6.78-.36 10.62V70.4l.36 10.98c.24 6.84 1.8 12.3 4.68 16.38 2.88 3.96 7.32 5.94 13.32 5.94ZM167.4 128a4.8 4.8 0 0 1-3.24-1.26 4.39 4.39 0 0 1-1.26-3.24V37.82l-24.66 18.9a4.08 4.08 0 0 1-3.42.9 5.06 5.06 0 0 1-2.88-1.98L121.3 41.78a5.1 5.1 0 0 1-.9-3.42 4.35 4.35 0 0 1 2.16-3.06l41.4-32.04a5.68 5.68 0 0 1 1.98-.9c.72-.24 1.5-.36 2.34-.36h22.5c1.2 0 2.22.42 3.06 1.26a4.1 4.1 0 0 1 1.44 3.24v117a4.1 4.1 0 0 1-1.44 3.24 4.17 4.17 0 0 1-3.06 1.26h-23.4Z"/></g><defs><filter id="a" width="198.92" height="137.6" x=".36" y=".2" color-interpolation-filters="sRGB" filterUnits="userSpaceOnUse"><feFlood flood-opacity="0" result="BackgroundImageFix"/><feColorMatrix in="SourceAlpha" result="hardAlpha" values="0 0 0 0 0 0 0 0 0 0 0 0 0 0 0 0 0 0 127 0"/><feOffset dy="4"/><feGaussianBlur stdDeviation="2"/><feComposite in2="hardAlpha" operator="out"/><feColorMatrix values="0 0 0 0 0 0 0 0 0 0 0 0 0 0 0 0 0 0 0.25 0"/><feBlend in2="BackgroundImageFix" result="effect1_dropShadow_33144_986"/><feBlend in="SourceGraphic" in2="effect1_dropShadow_33144_986" result="shape"/></filter></defs></svg>