<svg xmlns="http://www.w3.org/2000/svg" width="225" height="130" fill="none"><path fill="#fff" d="M52.02 129.8c-8.64 0-16.14-1.2-22.5-3.6-6.36-2.52-11.64-5.94-15.84-10.26a44.54 44.54 0 0 1-9.36-15.12A62.13 62.13 0 0 1 .54 82.28C.42 79.04.3 75.38.18 71.3V58.7c.12-4.32.24-8.16.36-11.52a60.2 60.2 0 0 1 3.78-18.36 43.5 43.5 0 0 1 9.72-14.94A44.8 44.8 0 0 1 29.88 3.8C36.24 1.4 43.62.2 52.02.2c8.52 0 15.9 1.2 22.14 3.6a43 43 0 0 1 15.66 10.08 42.27 42.27 0 0 1 9.9 14.94 53.83 53.83 0 0 1 3.78 18.36c.24 3.36.36 7.2.36 11.52.12 4.2.12 8.4 0 12.6 0 4.08-.12 7.74-.36 10.98a55.47 55.47 0 0 1-3.78 18.54 43.2 43.2 0 0 1-9.54 15.12c-4.08 4.32-9.3 7.74-15.66 10.26-6.24 2.4-13.74 3.6-22.5 3.6Zm0-26.1c6.24 0 10.74-1.98 13.5-5.94 2.88-4.08 4.38-9.54 4.5-16.38.24-3.48.36-7.14.36-10.98.12-3.84.12-7.68 0-11.52 0-3.84-.12-7.38-.36-10.62-.12-6.6-1.62-11.94-4.5-16.02-2.76-4.08-7.26-6.18-13.5-6.3-6.24.12-10.74 2.22-13.5 6.3s-4.26 9.42-4.5 16.02c-.12 3.24-.24 6.78-.36 10.62V70.4l.36 10.98c.24 6.84 1.8 12.3 4.68 16.38 2.88 3.96 7.32 5.94 13.32 5.94Zm119.83 26.1c-9.36 0-17.34-1.08-23.94-3.24-6.6-2.28-12-5.16-16.2-8.64-4.2-3.6-7.32-7.38-9.36-11.34-2.04-4.08-3.12-7.98-3.24-11.7 0-1.08.36-1.98 1.08-2.7a4.3 4.3 0 0 1 2.88-1.08h23.4c1.44 0 2.58.3 3.42.9a6.87 6.87 0 0 1 2.34 2.52 13.91 13.91 0 0 0 4.14 5.58 17.83 17.83 0 0 0 6.84 3.06c2.64.48 5.52.72 8.64.72 6.12 0 10.86-1.38 14.22-4.14 3.48-2.88 5.22-6.78 5.22-11.7 0-5.16-1.62-8.82-4.86-10.98-3.24-2.28-7.86-3.42-13.86-3.42h-19.98c-1.32 0-2.4-.42-3.24-1.26a4.39 4.39 0 0 1-1.26-3.24V59.06c0-1.44.3-2.7.9-3.78a6.57 6.57 0 0 1 1.98-2.34l29.52-25.02h-50.04a4.8 4.8 0 0 1-3.24-1.26 4.39 4.39 0 0 1-1.26-3.24V6.5c0-1.32.42-2.4 1.26-3.24A4.8 4.8 0 0 1 130.45 2h82.8c1.32 0 2.4.42 3.24 1.26a4.1 4.1 0 0 1 1.44 3.24v15.3c0 1.32-.3 2.52-.9 3.6a9.7 9.7 0 0 1-1.98 2.34l-27.36 25.38 1.26.36c6.84.84 12.96 2.7 18.36 5.58a31.67 31.67 0 0 1 12.78 11.7c3.12 5.04 4.68 11.46 4.68 19.26 0 8.16-2.34 15.24-7.02 21.24-4.56 5.88-10.8 10.44-18.72 13.68-7.92 3.24-16.98 4.86-27.18 4.86Z"/></svg>