<svg xmlns="http://www.w3.org/2000/svg" width="31" height="22" fill="none"><g clip-path="url(#a)"><path fill="#000" d="m30.3 7-3.5.2-3.2-4.9c-.1-.2-.4-.3-.6-.3-.2 0-.5.1-.6.3l-3.2 4.9h-3.5c-.4 0-.7.3-.7.7v.2l1.9 6.8c.2.7.7 1.1 1.4 1.1h9.4c.7 0 1.2-.4 1.4-1.1L31 8v-.2c0-.4-.3-.8-.7-.8ZM23 3.9l2.2 3.2h-4.3L23 3.9Z"/></g><circle cx="10.5" cy="11" r="10.5" fill="#fff"/><path fill="#000" d="M7.4 15.5a.35.35 0 0 1-.24-.08.35.35 0 0 1-.08-.24v-.45c0-.08.02-.18.07-.28.04-.1.14-.21.28-.34l2.97-2.96c.47-.4.84-.75 1.12-1.03.28-.29.47-.56.58-.82.12-.26.19-.53.19-.81 0-.54-.15-.96-.45-1.26-.3-.32-.74-.48-1.33-.48-.38 0-.7.08-.97.24-.27.15-.48.36-.64.63-.15.26-.25.56-.3.9-.02.12-.07.2-.15.25a.4.4 0 0 1-.21.07h-.73a.32.32 0 0 1-.2-.07.27.27 0 0 1-.1-.2 3.1 3.1 0 0 1 1.87-2.74c.41-.2.89-.28 1.43-.28.73 0 1.34.13 1.8.4.48.26.83.61 1.05 1.05a3.12 3.12 0 0 1 .13 2.58c-.14.33-.35.67-.62 1-.26.3-.58.64-.98.97l-2.68 2.73h4.36c.1 0 .19.03.24.09.07.05.1.13.1.23v.58c0 .1-.03.17-.1.24-.05.05-.13.08-.24.08H7.4Z"/><defs><clipPath id="a"><path fill="#fff" d="M15 2h16v14H15z"/></clipPath></defs></svg>